<svg id="emj2FKVYZNp1" xmlns="http://www.w3.org/2000/svg" xmlns:xlink="http://www.w3.org/1999/xlink" viewBox="0 0 120 120" shape-rendering="geometricPrecision" text-rendering="geometricPrecision"><rect width="94.141" height="68.36" rx="0" ry="0" transform="matrix(1.272028 0 0 1.7498 0.125006 0)" stroke-width="0"/><g transform="matrix(.568534 0 0 0.697641 33.238822 36.154995)"><path d="M63.574,52.539h-.976c-.375765.002151-.750956-.029645-1.121-.095q-.673-.123-1.223-.404c-.024467-.012408-.048802-.025075-.073-.038q-1.001-.537-1.734-1.367-.732-.83-1.245-1.856c-.227402-.453018-.435587-.915429-.624-1.386-.081026-.203679-.15771-.409059-.23-.616L47.07,20.02h-1.269v40.722c.001114.626458-.024242,1.252683-.076,1.877-.029925.352075-.069941.703219-.12,1.053-.070997.517929-.203602,1.025525-.395,1.512-.125362.314906-.27899.61781-.459.905-.32551.511616-.757701.946877-1.267,1.276-.219195.144232-.448449.272561-.686.384-.345886.159378-.707529.282049-1.079.366q-1.04.244-2.461.244-1.639,0-2.831-.254c-.401083-.08247-.793736-.201638-1.173-.356q-1.465-.61-2.197-1.66-.733-1.05-.928-2.417c-.08355-.592085-.13961-1.187724-.168-1.785-.018379-.381388-.027382-.76317-.027-1.145v-49.609c-.000979-1.368255.039706-2.736222.122-4.102.037621-.665098.131626-1.325802.281-1.975.126061-.544477.301452-1.076341.524-1.589.453179-1.038889,1.210881-1.915843,2.173-2.515q1.078-.689,2.809-.879c.469985-.050092.942356-.074461,1.415-.073h6.64c.391064-.000412.782112.005256,1.173.017q.56.018,1.044.053c.197277.014027.394305.031363.591.052.769177.083006,1.502336.369504,2.124.83q.71.515,1.406,1.48c.184507.256797.358971.520663.523.791.217682.360269.422479.728168.614,1.103q.65,1.262,1.381,3.058c.034862.085921.069529.171921.104.258.203424.506925.402431,1.015611.597,1.526q.868,2.273,1.915,5.313c.050126.14529.100126.290623.15.436.41074,1.199527.821074,2.399194,1.231,3.599q.553,1.619,1.173,3.435c.435555,1.276591.870888,2.553258,1.306,3.83l1.27,3.907h1.172l1.562-4.883q1.377-4.23,2.476-7.56c.31266-.947444.626661-1.894445.942-2.841.225974-.67802.454976-1.355027.687-2.031q.932-2.713,1.696-4.697c.035832-.092732.071832-.185399.108-.278.208368-.536998.425061-1.070729.65-1.601q.618-1.452,1.153-2.425c.041012-.074367.08268-.14837.125-.222q.609-1.062,1.268-1.727c.167598-.170297.347774-.327742.539-.471.603691-.459557,1.320908-.746444,2.075-.83q.772-.084,1.775-.11c.319934-.008178.639961-.012178.96-.012h7.128q2.735,0,4.224.952c.962119.599157,1.719821,1.476111,2.173,2.515.286407.662937.496101,1.356438.625,2.067.0911.494797.151549.994749.181,1.497.082294,1.365778.122979,2.733745.122,4.102v49.609c.000781.626472-.024908,1.252697-.077,1.877-.029593.352065-.069276.70321-.119,1.053-.081195.597315-.256005,1.178104-.518,1.721-.118201.242189-.254942.474882-.409.696q-.723,1.036-2.159,1.644c-.012985.005371-.025985.010704-.039.016-.366839.14966-.746359.266126-1.134.348q-1.185.258-2.818.262c-.017333.000022-.034667.000022-.052,0q-1.462,0-2.52-.258c-.350933-.082868-.69265-.200794-1.02-.352-.390045-.180575-.755901-.409361-1.089-.681-.338665-.277859-.630397-.60842-.864-.979-.343376-.553031-.592437-1.159294-.737-1.794-.048227-.205827-.087266-.4137-.117-.623-.08355-.592085-.13961-1.187724-.168-1.785-.018713-.38138-.028049-.763162-.028-1.145v-40.722h-1.367L69.727,46.777c-.201482.50281-.415212,1.000625-.641,1.493-.078055.170261-.157391.339933-.238.509-.318252.672694-.729253,1.297443-1.221,1.856-.485966.551448-1.064277,1.014028-1.709,1.367-.393847.213346-.819183.362551-1.26.442-.357599.065265-.7205.097069-1.084.095ZM0,57.129v-45.898q0-2.1.22-4.102c.079175-.752723.234298-1.495505.463-2.217.150721-.471489.338645-.930264.562-1.372.526612-1.03186,1.32855-1.897829,2.317-2.502.033174-.020594.066508-.040928.1-.061.469647-.278113.975414-.490111,1.503-.63q.705-.195,1.547-.281c.462931-.045369.927853-.067397,1.393-.066q1.859,0,3.192.421c.438042.134663.858371.321327,1.252.556q1.611.976,2.417,2.563c.387191.771624.670647,1.59106.843,2.437.079306.380823.140044.765277.182,1.152q.22,2.002.22,4.102v45.898c.001336,1.217569-.048709,2.434651-.15,3.648-.013925.167428-.028926.334765-.045.502-.069586.747891-.216709,1.486525-.439,2.204-.148819.476375-.336794.939621-.562,1.385-.518042,1.015301-1.311706,1.864071-2.29,2.449-.050302.030611-.100973.060613-.152.09-.476479.271429-.986959.478245-1.518.615q-1.262.337-2.95.337-1.858,0-3.191-.41c-.437167-.13088-.857396-.3128-1.252-.542q-1.611-.952-2.417-2.539c-.387191-.771624-.670647-1.59106-.843-2.437-.079306-.380823-.140044-.765277-.182-1.152-.13039-1.200812-.202807-2.407213-.217-3.615-.00215-.178325-.00315-.356662-.003-.535Z" transform="matrix(1.624542 0 0 1.556794-29.397504-19.030927)" fill="#fff" fill-rule="evenodd" stroke="#000" stroke-width="0.944882" stroke-linecap="round"/></g></svg>
